<?xml version="1.0" encoding="utf-8"?>
<!-- Generator: Adobe Illustrator 16.0.4, SVG Export Plug-In . SVG Version: 6.00 Build 0)  -->
<!DOCTYPE svg PUBLIC "-//W3C//DTD SVG 1.1//EN" "http://www.w3.org/Graphics/SVG/1.1/DTD/svg11.dtd">
<svg version="1.1" xmlns="http://www.w3.org/2000/svg" xmlns:xlink="http://www.w3.org/1999/xlink" x="0px" y="0px" width="400px"
	 height="24px" viewBox="0 0 400 24" enable-background="new 0 0 400 24" xml:space="preserve">
<g id="bg">
</g>
<g id="sketch">
	<g>
		<g opacity="0.4">
			<circle fill="#FFFFFF" cx="35" cy="12" r="5.5"/>
			<circle fill="#FFFFFF" cx="35" cy="12" r="5.5"/>
			<circle fill="#FFFFFF" cx="35" cy="12" r="5.5"/>
			<circle fill="none" stroke="#FFFFFF" stroke-miterlimit="10" cx="35" cy="12" r="5.5"/>
			<circle fill="#FFFFFF" cx="35" cy="13" r="5.5"/>
			<circle fill="#FFFFFF" cx="35" cy="13" r="5.5"/>
			<circle fill="#FFFFFF" cx="35" cy="13" r="5.5"/>
			<circle fill="none" stroke="#FFFFFF" stroke-miterlimit="10" cx="35" cy="13" r="5.5"/>
		</g>
		<g>
			<g opacity="0.05">
				<circle cx="35" cy="11" r="5.5"/>
				<circle cx="35" cy="11" r="5.5"/>
				<circle cx="35" cy="11" r="5.5"/>
				<circle fill="none" stroke="#000000" stroke-miterlimit="10" cx="35" cy="11" r="5.5"/>
			</g>
			<g>
				<circle fill="#F5B958" cx="35" cy="12" r="5.5"/>
				
					<radialGradient id="SVGID_1_" cx="144.0469" cy="-11.2266" r="3.8769" gradientTransform="matrix(-4.006879e-08 0.9167 -1.1 -4.808254e-08 22.1127 -125.1656)" gradientUnits="userSpaceOnUse">
					<stop  offset="0" style="stop-color:#FFFFFF"/>
					<stop  offset="1" style="stop-color:#FFFFFF;stop-opacity:0"/>
				</radialGradient>
				<circle fill="url(#SVGID_1_)" cx="35" cy="12" r="5.5"/>
				
					<radialGradient id="SVGID_2_" cx="143.833" cy="-0.4976" r="6.8852" gradientTransform="matrix(-4.006879e-08 -0.9167 1.1 -4.808254e-08 34.8132 148.5593)" gradientUnits="userSpaceOnUse">
					<stop  offset="0" style="stop-color:#E4D47B"/>
					<stop  offset="1" style="stop-color:#FFFFFF;stop-opacity:0"/>
				</radialGradient>
				<circle fill="url(#SVGID_2_)" cx="35" cy="12" r="5.5"/>
				<linearGradient id="SVGID_3_" gradientUnits="userSpaceOnUse" x1="35" y1="18" x2="35" y2="6">
					<stop  offset="0" style="stop-color:#B7A14D"/>
					<stop  offset="1" style="stop-color:#8A4F16"/>
				</linearGradient>
				<circle fill="none" stroke="url(#SVGID_3_)" stroke-miterlimit="10" cx="35" cy="12" r="5.5"/>
			</g>
		</g>
	</g>
	<g>
		<g opacity="0.4">
			<circle fill="#FFFFFF" cx="55" cy="12" r="5.5"/>
			<circle fill="#FFFFFF" cx="55" cy="12" r="5.5"/>
			<circle opacity="0.6" fill="#FFFFFF" cx="55" cy="12" r="5.5"/>
			<circle fill="none" stroke="#FFFFFF" stroke-miterlimit="10" cx="55" cy="12" r="5.5"/>
			<circle fill="#FFFFFF" cx="55" cy="13" r="5.5"/>
			<circle fill="#FFFFFF" cx="55" cy="13" r="5.5"/>
			<circle opacity="0.6" fill="#FFFFFF" cx="55" cy="13" r="5.5"/>
			<circle fill="none" stroke="#FFFFFF" stroke-miterlimit="10" cx="55" cy="13" r="5.5"/>
		</g>
		<g>
			<g opacity="0.05">
				<circle cx="55" cy="11" r="5.5"/>
				<circle cx="55" cy="11" r="5.5"/>
				<circle opacity="0.6" cx="55" cy="11" r="5.5"/>
				<circle fill="none" stroke="#000000" stroke-miterlimit="10" cx="55" cy="11" r="5.5"/>
			</g>
			<g>
				<circle fill="#8BC865" cx="55" cy="12" r="5.5"/>
				
					<radialGradient id="SVGID_4_" cx="165.54" cy="-11.5073" r="3.8768" gradientTransform="matrix(-4.007023e-08 0.9167 -1.1 -4.808428e-08 41.804 -144.873)" gradientUnits="userSpaceOnUse">
					<stop  offset="0" style="stop-color:#FFFFFF"/>
					<stop  offset="1" style="stop-color:#FFFFFF;stop-opacity:0"/>
				</radialGradient>
				<circle fill="url(#SVGID_4_)" cx="55" cy="12" r="5.5"/>
				
					<radialGradient id="SVGID_5_" cx="165.3262" cy="-0.7783" r="6.8842" gradientTransform="matrix(-4.007023e-08 -0.9167 1.1 -4.808428e-08 55.1227 168.2673)" gradientUnits="userSpaceOnUse">
					<stop  offset="0" style="stop-color:#FFFFFF"/>
					<stop  offset="1" style="stop-color:#FFFFFF;stop-opacity:0"/>
				</radialGradient>
				<circle opacity="0.6" fill="url(#SVGID_5_)" cx="55" cy="12" r="5.5"/>
				<linearGradient id="SVGID_6_" gradientUnits="userSpaceOnUse" x1="55" y1="18" x2="55" y2="6">
					<stop  offset="0" style="stop-color:#8E9F77"/>
					<stop  offset="1" style="stop-color:#3E5C2C"/>
				</linearGradient>
				<circle fill="none" stroke="url(#SVGID_6_)" stroke-miterlimit="10" cx="55" cy="12" r="5.5"/>
			</g>
		</g>
	</g>
	<g>
		<g opacity="0.4">
			<circle fill="#FFFFFF" cx="15" cy="12" r="5.5"/>
			<circle opacity="0.8" fill="#FFFFFF" cx="15" cy="12" r="5.5"/>
			<circle opacity="0.9" fill="#FFFFFF" cx="15" cy="12" r="5.5"/>
			<circle fill="none" stroke="#FFFFFF" stroke-miterlimit="10" cx="15" cy="12" r="5.5"/>
			<circle fill="#FFFFFF" cx="15" cy="13" r="5.5"/>
			<circle opacity="0.8" fill="#FFFFFF" cx="15" cy="13" r="5.5"/>
			<circle opacity="0.9" fill="#FFFFFF" cx="15" cy="13" r="5.5"/>
			<circle fill="none" stroke="#FFFFFF" stroke-miterlimit="10" cx="15" cy="13" r="5.5"/>
		</g>
		<g>
			<g opacity="0.05">
				<circle cx="15" cy="11" r="5.5"/>
				<circle opacity="0.8" cx="15" cy="11" r="5.5"/>
				<circle opacity="0.9" cx="15" cy="11" r="5.5"/>
				<circle fill="none" stroke="#000000" stroke-miterlimit="10" cx="15" cy="11" r="5.5"/>
			</g>
			<g>
				<circle fill="#F95349" cx="15" cy="12" r="5.5"/>
				
					<radialGradient id="SVGID_7_" cx="122.2295" cy="-11.2266" r="3.8768" gradientTransform="matrix(-4.006879e-08 0.9167 -1.1 -4.808254e-08 2.1134 -105.1663)" gradientUnits="userSpaceOnUse">
					<stop  offset="0" style="stop-color:#FFFFFF"/>
					<stop  offset="1" style="stop-color:#FFFFFF;stop-opacity:0"/>
				</radialGradient>
				<circle opacity="0.8" fill="url(#SVGID_7_)" cx="15" cy="12" r="5.5"/>
				
					<radialGradient id="SVGID_8_" cx="122.1455" cy="2.6064" r="8.7513" gradientTransform="matrix(-4.006879e-08 -0.9167 1.1 -4.808254e-08 11.5186 131.5244)" gradientUnits="userSpaceOnUse">
					<stop  offset="0" style="stop-color:#FFFFFF"/>
					<stop  offset="1" style="stop-color:#FFFFFF;stop-opacity:0"/>
				</radialGradient>
				<circle opacity="0.9" fill="url(#SVGID_8_)" cx="15" cy="12" r="5.5"/>
				<linearGradient id="SVGID_9_" gradientUnits="userSpaceOnUse" x1="15" y1="18" x2="15" y2="6">
					<stop  offset="0" style="stop-color:#AE7C7B"/>
					<stop  offset="1" style="stop-color:#693834"/>
				</linearGradient>
				<circle fill="none" stroke="url(#SVGID_9_)" stroke-miterlimit="10" cx="15" cy="12" r="5.5"/>
			</g>
		</g>
	</g>
</g>
</svg>
